<svg xmlns="http://www.w3.org/2000/svg" viewBox="0 0 16 16" shape-rendering="crispEdges">
  <!-- 16x16 pixel Poke Ball on DMG green -->
  <rect width="16" height="16" fill="#9bbc0f"/>
  <rect x="5" y="2" width="6" height="1" fill="#0f380f"/>
  <rect x="3" y="3" width="2" height="1" fill="#0f380f"/>
  <rect x="11" y="3" width="2" height="1" fill="#0f380f"/>
  <rect x="5" y="3" width="6" height="1" fill="#8bac0f"/>
  <rect x="2" y="4" width="1" height="2" fill="#0f380f"/>
  <rect x="13" y="4" width="1" height="2" fill="#0f380f"/>
  <rect x="3" y="4" width="10" height="2" fill="#8bac0f"/>
  <rect x="1" y="6" width="1" height="4" fill="#0f380f"/>
  <rect x="14" y="6" width="1" height="4" fill="#0f380f"/>
  <rect x="2" y="6" width="12" height="1" fill="#8bac0f"/>
  <rect x="2" y="7" width="12" height="1" fill="#0f380f"/>
  <rect x="2" y="8" width="3" height="1" fill="#0f380f"/>
  <rect x="11" y="8" width="3" height="1" fill="#0f380f"/>
  <rect x="5" y="8" width="2" height="1" fill="#0f380f"/>
  <rect x="7" y="8" width="2" height="1" fill="#9bbc0f"/>
  <rect x="9" y="8" width="2" height="1" fill="#0f380f"/>
  <rect x="2" y="9" width="4" height="1" fill="#9bbc0f"/>
  <rect x="6" y="9" width="1" height="1" fill="#0f380f"/>
  <rect x="7" y="9" width="2" height="1" fill="#9bbc0f"/>
  <rect x="9" y="9" width="1" height="1" fill="#0f380f"/>
  <rect x="10" y="9" width="4" height="1" fill="#9bbc0f"/>
  <rect x="2" y="10" width="1" height="2" fill="#0f380f"/>
  <rect x="13" y="10" width="1" height="2" fill="#0f380f"/>
  <rect x="3" y="10" width="3" height="1" fill="#9bbc0f"/>
  <rect x="6" y="10" width="4" height="1" fill="#0f380f"/>
  <rect x="10" y="10" width="3" height="1" fill="#9bbc0f"/>
  <rect x="3" y="11" width="10" height="1" fill="#9bbc0f"/>
  <rect x="3" y="12" width="2" height="1" fill="#0f380f"/>
  <rect x="11" y="12" width="2" height="1" fill="#0f380f"/>
  <rect x="5" y="12" width="6" height="1" fill="#9bbc0f"/>
  <rect x="5" y="13" width="6" height="1" fill="#0f380f"/>
</svg>
